<svg xmlns="http://www.w3.org/2000/svg" version="1.1" xmlns:xlink="http://www.w3.org/1999/xlink" xmlns:svgjs="http://svgjs.dev/svgjs" width="1517" height="664" preserveAspectRatio="none" viewBox="0 0 1517 664"><g mask="url(&quot;#SvgjsMask2015&quot;)" fill="none"><path d="M-41.92 688.41L-41.92 688.41" stroke="rgba(26, 95, 122, 1)" stroke-width="1.5"></path><path d="M-41.92 688.41L66.16 685.74" stroke="rgba(26, 95, 122, 1)" stroke-width="1.5"></path><path d="M-41.92 688.41L70.54 791.46" stroke="rgba(26, 95, 122, 1)" stroke-width="1.5"></path><path d="M-41.92 688.41L-107.71 845.98" stroke="rgba(26, 95, 122, 1)" stroke-width="1.5"></path><path d="M-41.92 688.41L84.53 520.68" stroke="rgba(26, 95, 122, 1)" stroke-width="1.5"></path><path d="M-41.92 688.41L219.06 673.93" stroke="rgba(26, 95, 122, 1)" stroke-width="1.5"></path><path d="M-107.71 845.98L-107.71 845.98" stroke="rgba(26, 95, 122, 1)" stroke-width="1.5"></path><path d="M-107.71 845.98L70.54 791.46" stroke="rgba(26, 95, 122, 1)" stroke-width="1.5"></path><path d="M-107.71 845.98L66.16 685.74" stroke="rgba(26, 95, 122, 1)" stroke-width="1.5"></path><path d="M-107.71 845.98L251.94 843.88" stroke="rgba(26, 95, 122, 1)" stroke-width="1.5"></path><path d="M-107.71 845.98L219.06 673.93" stroke="rgba(26, 95, 122, 1)" stroke-width="1.5"></path><path d="M84.53 520.68L84.53 520.68" stroke="rgba(26, 95, 122, 1)" stroke-width="1.5"></path><path d="M84.53 520.68L66.16 685.74" stroke="rgba(26, 95, 122, 1)" stroke-width="1.5"></path><path d="M84.53 520.68L253.97 498.17" stroke="rgba(26, 95, 122, 1)" stroke-width="1.5"></path><path d="M84.53 520.68L222.47 396.61" stroke="rgba(26, 95, 122, 1)" stroke-width="1.5"></path><path d="M84.53 520.68L219.06 673.93" stroke="rgba(26, 95, 122, 1)" stroke-width="1.5"></path><path d="M66.16 685.74L66.16 685.74" stroke="rgba(26, 95, 122, 1)" stroke-width="1.5"></path><path d="M66.16 685.74L70.54 791.46" stroke="rgba(26, 95, 122, 1)" stroke-width="1.5"></path><path d="M66.16 685.74L219.06 673.93" stroke="rgba(26, 95, 122, 1)" stroke-width="1.5"></path><path d="M66.16 685.74L251.94 843.88" stroke="rgba(26, 95, 122, 1)" stroke-width="1.5"></path><path d="M70.54 791.46L70.54 791.46" stroke="rgba(26, 95, 122, 1)" stroke-width="1.5"></path><path d="M70.54 791.46L251.94 843.88" stroke="rgba(26, 95, 122, 1)" stroke-width="1.5"></path><path d="M222.47 396.61L222.47 396.61" stroke="rgba(26, 95, 122, 1)" stroke-width="1.5"></path><path d="M222.47 396.61L253.97 498.17" stroke="rgba(26, 95, 122, 1)" stroke-width="1.5"></path><path d="M222.47 396.61L371.59 524.44" stroke="rgba(26, 95, 122, 1)" stroke-width="1.5"></path><path d="M222.47 396.61L489.22 382.66" stroke="rgba(26, 95, 122, 1)" stroke-width="1.5"></path><path d="M253.97 498.17L253.97 498.17" stroke="rgba(26, 95, 122, 1)" stroke-width="1.5"></path><path d="M253.97 498.17L371.59 524.44" stroke="rgba(26, 95, 122, 1)" stroke-width="1.5"></path><path d="M253.97 498.17L219.06 673.93" stroke="rgba(26, 95, 122, 1)" stroke-width="1.5"></path><path d="M253.97 498.17L379.21 663.72" stroke="rgba(26, 95, 122, 1)" stroke-width="1.5"></path><path d="M253.97 498.17L489.22 382.66" stroke="rgba(26, 95, 122, 1)" stroke-width="1.5"></path><path d="M219.06 673.93L219.06 673.93" stroke="rgba(26, 95, 122, 1)" stroke-width="1.5"></path><path d="M219.06 673.93L379.21 663.72" stroke="rgba(26, 95, 122, 1)" stroke-width="1.5"></path><path d="M219.06 673.93L251.94 843.88" stroke="rgba(26, 95, 122, 1)" stroke-width="1.5"></path><path d="M251.94 843.88L251.94 843.88" stroke="rgba(26, 95, 122, 1)" stroke-width="1.5"></path><path d="M251.94 843.88L383.92 826.46" stroke="rgba(26, 95, 122, 1)" stroke-width="1.5"></path><path d="M371.59 524.44L371.59 524.44" stroke="rgba(26, 95, 122, 1)" stroke-width="1.5"></path><path d="M371.59 524.44L379.21 663.72" stroke="rgba(26, 95, 122, 1)" stroke-width="1.5"></path><path d="M371.59 524.44L546.18 539.46" stroke="rgba(26, 95, 122, 1)" stroke-width="1.5"></path><path d="M371.59 524.44L489.22 382.66" stroke="rgba(26, 95, 122, 1)" stroke-width="1.5"></path><path d="M379.21 663.72L379.21 663.72" stroke="rgba(26, 95, 122, 1)" stroke-width="1.5"></path><path d="M379.21 663.72L518.8 687.35" stroke="rgba(26, 95, 122, 1)" stroke-width="1.5"></path><path d="M379.21 663.72L383.92 826.46" stroke="rgba(26, 95, 122, 1)" stroke-width="1.5"></path><path d="M383.92 826.46L383.92 826.46" stroke="rgba(26, 95, 122, 1)" stroke-width="1.5"></path><path d="M383.92 826.46L542.52 848.08" stroke="rgba(26, 95, 122, 1)" stroke-width="1.5"></path><path d="M383.92 826.46L518.8 687.35" stroke="rgba(26, 95, 122, 1)" stroke-width="1.5"></path><path d="M383.92 826.46L219.06 673.93" stroke="rgba(26, 95, 122, 1)" stroke-width="1.5"></path><path d="M489.22 382.66L489.22 382.66" stroke="rgba(26, 95, 122, 1)" stroke-width="1.5"></path><path d="M489.22 382.66L546.18 539.46" stroke="rgba(26, 95, 122, 1)" stroke-width="1.5"></path><path d="M489.22 382.66L670.93 390.2" stroke="rgba(26, 95, 122, 1)" stroke-width="1.5"></path><path d="M546.18 539.46L546.18 539.46" stroke="rgba(26, 95, 122, 1)" stroke-width="1.5"></path><path d="M546.18 539.46L681.56 509.45" stroke="rgba(26, 95, 122, 1)" stroke-width="1.5"></path><path d="M546.18 539.46L518.8 687.35" stroke="rgba(26, 95, 122, 1)" stroke-width="1.5"></path><path d="M518.8 687.35L518.8 687.35" stroke="rgba(26, 95, 122, 1)" stroke-width="1.5"></path><path d="M518.8 687.35L542.52 848.08" stroke="rgba(26, 95, 122, 1)" stroke-width="1.5"></path><path d="M542.52 848.08L542.52 848.08" stroke="rgba(26, 95, 122, 1)" stroke-width="1.5"></path><path d="M542.52 848.08L661.11 839.53" stroke="rgba(26, 95, 122, 1)" stroke-width="1.5"></path><path d="M670.93 390.2L670.93 390.2" stroke="rgba(26, 95, 122, 1)" stroke-width="1.5"></path><path d="M670.93 390.2L681.56 509.45" stroke="rgba(26, 95, 122, 1)" stroke-width="1.5"></path><path d="M670.93 390.2L796.85 375.33" stroke="rgba(26, 95, 122, 1)" stroke-width="1.5"></path><path d="M670.93 390.2L808.84 522.71" stroke="rgba(26, 95, 122, 1)" stroke-width="1.5"></path><path d="M670.93 390.2L546.18 539.46" stroke="rgba(26, 95, 122, 1)" stroke-width="1.5"></path><path d="M670.93 390.2L816.92 208.19" stroke="rgba(26, 95, 122, 1)" stroke-width="1.5"></path><path d="M681.56 509.45L681.56 509.45" stroke="rgba(26, 95, 122, 1)" stroke-width="1.5"></path><path d="M681.56 509.45L808.84 522.71" stroke="rgba(26, 95, 122, 1)" stroke-width="1.5"></path><path d="M681.03 662.14L681.03 662.14" stroke="rgba(26, 95, 122, 1)" stroke-width="1.5"></path><path d="M681.03 662.14L681.56 509.45" stroke="rgba(26, 95, 122, 1)" stroke-width="1.5"></path><path d="M681.03 662.14L839.79 683.32" stroke="rgba(26, 95, 122, 1)" stroke-width="1.5"></path><path d="M681.03 662.14L518.8 687.35" stroke="rgba(26, 95, 122, 1)" stroke-width="1.5"></path><path d="M681.03 662.14L661.11 839.53" stroke="rgba(26, 95, 122, 1)" stroke-width="1.5"></path><path d="M681.03 662.14L546.18 539.46" stroke="rgba(26, 95, 122, 1)" stroke-width="1.5"></path><path d="M661.11 839.53L661.11 839.53" stroke="rgba(26, 95, 122, 1)" stroke-width="1.5"></path><path d="M661.11 839.53L809.86 815.28" stroke="rgba(26, 95, 122, 1)" stroke-width="1.5"></path><path d="M816.92 208.19L816.92 208.19" stroke="rgba(26, 95, 122, 1)" stroke-width="1.5"></path><path d="M816.92 208.19L796.85 375.33" stroke="rgba(26, 95, 122, 1)" stroke-width="1.5"></path><path d="M816.92 208.19L995.91 249.74" stroke="rgba(26, 95, 122, 1)" stroke-width="1.5"></path><path d="M796.85 375.33L796.85 375.33" stroke="rgba(26, 95, 122, 1)" stroke-width="1.5"></path><path d="M796.85 375.33L808.84 522.71" stroke="rgba(26, 95, 122, 1)" stroke-width="1.5"></path><path d="M796.85 375.33L681.56 509.45" stroke="rgba(26, 95, 122, 1)" stroke-width="1.5"></path><path d="M796.85 375.33L983.61 410.53" stroke="rgba(26, 95, 122, 1)" stroke-width="1.5"></path><path d="M796.85 375.33L949.1 544.25" stroke="rgba(26, 95, 122, 1)" stroke-width="1.5"></path><path d="M808.84 522.71L808.84 522.71" stroke="rgba(26, 95, 122, 1)" stroke-width="1.5"></path><path d="M808.84 522.71L949.1 544.25" stroke="rgba(26, 95, 122, 1)" stroke-width="1.5"></path><path d="M808.84 522.71L839.79 683.32" stroke="rgba(26, 95, 122, 1)" stroke-width="1.5"></path><path d="M808.84 522.71L681.03 662.14" stroke="rgba(26, 95, 122, 1)" stroke-width="1.5"></path><path d="M839.79 683.32L839.79 683.32" stroke="rgba(26, 95, 122, 1)" stroke-width="1.5"></path><path d="M839.79 683.32L960.12 682.33" stroke="rgba(26, 95, 122, 1)" stroke-width="1.5"></path><path d="M839.79 683.32L809.86 815.28" stroke="rgba(26, 95, 122, 1)" stroke-width="1.5"></path><path d="M839.79 683.32L949.1 544.25" stroke="rgba(26, 95, 122, 1)" stroke-width="1.5"></path><path d="M839.79 683.32L975.36 859.29" stroke="rgba(26, 95, 122, 1)" stroke-width="1.5"></path><path d="M809.86 815.28L809.86 815.28" stroke="rgba(26, 95, 122, 1)" stroke-width="1.5"></path><path d="M809.86 815.28L975.36 859.29" stroke="rgba(26, 95, 122, 1)" stroke-width="1.5"></path><path d="M809.86 815.28L681.03 662.14" stroke="rgba(26, 95, 122, 1)" stroke-width="1.5"></path><path d="M809.86 815.28L960.12 682.33" stroke="rgba(26, 95, 122, 1)" stroke-width="1.5"></path><path d="M809.86 815.28L542.52 848.08" stroke="rgba(26, 95, 122, 1)" stroke-width="1.5"></path><path d="M943.43 -74.73L943.43 -74.73" stroke="rgba(26, 95, 122, 1)" stroke-width="1.5"></path><path d="M943.43 -74.73L1159.75 -77.47" stroke="rgba(26, 95, 122, 1)" stroke-width="1.5"></path><path d="M943.43 -74.73L1155.18 67.48" stroke="rgba(26, 95, 122, 1)" stroke-width="1.5"></path><path d="M943.43 -74.73L1101.76 189.86" stroke="rgba(26, 95, 122, 1)" stroke-width="1.5"></path><path d="M943.43 -74.73L816.92 208.19" stroke="rgba(26, 95, 122, 1)" stroke-width="1.5"></path><path d="M943.43 -74.73L1264.78 -48.55" stroke="rgba(26, 95, 122, 1)" stroke-width="1.5"></path><path d="M943.43 -74.73L995.91 249.74" stroke="rgba(26, 95, 122, 1)" stroke-width="1.5"></path><path d="M995.91 249.74L995.91 249.74" stroke="rgba(26, 95, 122, 1)" stroke-width="1.5"></path><path d="M995.91 249.74L1101.76 189.86" stroke="rgba(26, 95, 122, 1)" stroke-width="1.5"></path><path d="M995.91 249.74L983.61 410.53" stroke="rgba(26, 95, 122, 1)" stroke-width="1.5"></path><path d="M983.61 410.53L983.61 410.53" stroke="rgba(26, 95, 122, 1)" stroke-width="1.5"></path><path d="M983.61 410.53L949.1 544.25" stroke="rgba(26, 95, 122, 1)" stroke-width="1.5"></path><path d="M983.61 410.53L1142.73 344.85" stroke="rgba(26, 95, 122, 1)" stroke-width="1.5"></path><path d="M983.61 410.53L808.84 522.71" stroke="rgba(26, 95, 122, 1)" stroke-width="1.5"></path><path d="M983.61 410.53L1137.39 555" stroke="rgba(26, 95, 122, 1)" stroke-width="1.5"></path><path d="M949.1 544.25L949.1 544.25" stroke="rgba(26, 95, 122, 1)" stroke-width="1.5"></path><path d="M949.1 544.25L960.12 682.33" stroke="rgba(26, 95, 122, 1)" stroke-width="1.5"></path><path d="M960.12 682.33L960.12 682.33" stroke="rgba(26, 95, 122, 1)" stroke-width="1.5"></path><path d="M960.12 682.33L1135.72 700.66" stroke="rgba(26, 95, 122, 1)" stroke-width="1.5"></path><path d="M975.36 859.29L975.36 859.29" stroke="rgba(26, 95, 122, 1)" stroke-width="1.5"></path><path d="M975.36 859.29L1100.26 856.64" stroke="rgba(26, 95, 122, 1)" stroke-width="1.5"></path><path d="M975.36 859.29L960.12 682.33" stroke="rgba(26, 95, 122, 1)" stroke-width="1.5"></path><path d="M975.36 859.29L1135.72 700.66" stroke="rgba(26, 95, 122, 1)" stroke-width="1.5"></path><path d="M1159.75 -77.47L1159.75 -77.47" stroke="rgba(26, 95, 122, 1)" stroke-width="1.5"></path><path d="M1159.75 -77.47L1264.78 -48.55" stroke="rgba(26, 95, 122, 1)" stroke-width="1.5"></path><path d="M1159.75 -77.47L1155.18 67.48" stroke="rgba(26, 95, 122, 1)" stroke-width="1.5"></path><path d="M1159.75 -77.47L1294.55 96.34" stroke="rgba(26, 95, 122, 1)" stroke-width="1.5"></path><path d="M1155.18 67.48L1155.18 67.48" stroke="rgba(26, 95, 122, 1)" stroke-width="1.5"></path><path d="M1155.18 67.48L1101.76 189.86" stroke="rgba(26, 95, 122, 1)" stroke-width="1.5"></path><path d="M1155.18 67.48L1294.55 96.34" stroke="rgba(26, 95, 122, 1)" stroke-width="1.5"></path><path d="M1155.18 67.48L1264.78 -48.55" stroke="rgba(26, 95, 122, 1)" stroke-width="1.5"></path><path d="M1101.76 189.86L1101.76 189.86" stroke="rgba(26, 95, 122, 1)" stroke-width="1.5"></path><path d="M1142.73 344.85L1142.73 344.85" stroke="rgba(26, 95, 122, 1)" stroke-width="1.5"></path><path d="M1142.73 344.85L1251.56 347.35" stroke="rgba(26, 95, 122, 1)" stroke-width="1.5"></path><path d="M1142.73 344.85L1248.19 250.61" stroke="rgba(26, 95, 122, 1)" stroke-width="1.5"></path><path d="M1142.73 344.85L1101.76 189.86" stroke="rgba(26, 95, 122, 1)" stroke-width="1.5"></path><path d="M1137.39 555L1137.39 555" stroke="rgba(26, 95, 122, 1)" stroke-width="1.5"></path><path d="M1137.39 555L1247.69 497.77" stroke="rgba(26, 95, 122, 1)" stroke-width="1.5"></path><path d="M1137.39 555L1135.72 700.66" stroke="rgba(26, 95, 122, 1)" stroke-width="1.5"></path><path d="M1135.72 700.66L1135.72 700.66" stroke="rgba(26, 95, 122, 1)" stroke-width="1.5"></path><path d="M1135.72 700.66L1267.61 658.21" stroke="rgba(26, 95, 122, 1)" stroke-width="1.5"></path><path d="M1135.72 700.66L1100.26 856.64" stroke="rgba(26, 95, 122, 1)" stroke-width="1.5"></path><path d="M1135.72 700.66L1252.41 817.67" stroke="rgba(26, 95, 122, 1)" stroke-width="1.5"></path><path d="M1100.26 856.64L1100.26 856.64" stroke="rgba(26, 95, 122, 1)" stroke-width="1.5"></path><path d="M1100.26 856.64L1252.41 817.67" stroke="rgba(26, 95, 122, 1)" stroke-width="1.5"></path><path d="M1100.26 856.64L960.12 682.33" stroke="rgba(26, 95, 122, 1)" stroke-width="1.5"></path><path d="M1100.26 856.64L1267.61 658.21" stroke="rgba(26, 95, 122, 1)" stroke-width="1.5"></path><path d="M1264.78 -48.55L1264.78 -48.55" stroke="rgba(26, 95, 122, 1)" stroke-width="1.5"></path><path d="M1264.78 -48.55L1407.81 -47.6" stroke="rgba(26, 95, 122, 1)" stroke-width="1.5"></path><path d="M1264.78 -48.55L1294.55 96.34" stroke="rgba(26, 95, 122, 1)" stroke-width="1.5"></path><path d="M1294.55 96.34L1294.55 96.34" stroke="rgba(26, 95, 122, 1)" stroke-width="1.5"></path><path d="M1294.55 96.34L1411 99.4" stroke="rgba(26, 95, 122, 1)" stroke-width="1.5"></path><path d="M1248.19 250.61L1248.19 250.61" stroke="rgba(26, 95, 122, 1)" stroke-width="1.5"></path><path d="M1248.19 250.61L1251.56 347.35" stroke="rgba(26, 95, 122, 1)" stroke-width="1.5"></path><path d="M1248.19 250.61L1101.76 189.86" stroke="rgba(26, 95, 122, 1)" stroke-width="1.5"></path><path d="M1248.19 250.61L1294.55 96.34" stroke="rgba(26, 95, 122, 1)" stroke-width="1.5"></path><path d="M1248.19 250.61L1406.76 192.91" stroke="rgba(26, 95, 122, 1)" stroke-width="1.5"></path><path d="M1248.19 250.61L1155.18 67.48" stroke="rgba(26, 95, 122, 1)" stroke-width="1.5"></path><path d="M1251.56 347.35L1251.56 347.35" stroke="rgba(26, 95, 122, 1)" stroke-width="1.5"></path><path d="M1251.56 347.35L1247.69 497.77" stroke="rgba(26, 95, 122, 1)" stroke-width="1.5"></path><path d="M1251.56 347.35L1427.45 375.36" stroke="rgba(26, 95, 122, 1)" stroke-width="1.5"></path><path d="M1247.69 497.77L1247.69 497.77" stroke="rgba(26, 95, 122, 1)" stroke-width="1.5"></path><path d="M1267.61 658.21L1267.61 658.21" stroke="rgba(26, 95, 122, 1)" stroke-width="1.5"></path><path d="M1267.61 658.21L1411.15 665.38" stroke="rgba(26, 95, 122, 1)" stroke-width="1.5"></path><path d="M1267.61 658.21L1252.41 817.67" stroke="rgba(26, 95, 122, 1)" stroke-width="1.5"></path><path d="M1267.61 658.21L1247.69 497.77" stroke="rgba(26, 95, 122, 1)" stroke-width="1.5"></path><path d="M1267.61 658.21L1137.39 555" stroke="rgba(26, 95, 122, 1)" stroke-width="1.5"></path><path d="M1267.61 658.21L1422.87 539.55" stroke="rgba(26, 95, 122, 1)" stroke-width="1.5"></path><path d="M1252.41 817.67L1252.41 817.67" stroke="rgba(26, 95, 122, 1)" stroke-width="1.5"></path><path d="M1252.41 817.67L1424.6 843.87" stroke="rgba(26, 95, 122, 1)" stroke-width="1.5"></path><path d="M1407.81 -47.6L1407.81 -47.6" stroke="rgba(26, 95, 122, 1)" stroke-width="1.5"></path><path d="M1407.81 -47.6L1411 99.4" stroke="rgba(26, 95, 122, 1)" stroke-width="1.5"></path><path d="M1407.81 -47.6L1553.28 59.51" stroke="rgba(26, 95, 122, 1)" stroke-width="1.5"></path><path d="M1407.81 -47.6L1294.55 96.34" stroke="rgba(26, 95, 122, 1)" stroke-width="1.5"></path><path d="M1411 99.4L1411 99.4" stroke="rgba(26, 95, 122, 1)" stroke-width="1.5"></path><path d="M1411 99.4L1406.76 192.91" stroke="rgba(26, 95, 122, 1)" stroke-width="1.5"></path><path d="M1411 99.4L1553.28 59.51" stroke="rgba(26, 95, 122, 1)" stroke-width="1.5"></path><path d="M1411 99.4L1576.84 191.22" stroke="rgba(26, 95, 122, 1)" stroke-width="1.5"></path><path d="M1411 99.4L1264.78 -48.55" stroke="rgba(26, 95, 122, 1)" stroke-width="1.5"></path><path d="M1406.76 192.91L1406.76 192.91" stroke="rgba(26, 95, 122, 1)" stroke-width="1.5"></path><path d="M1406.76 192.91L1294.55 96.34" stroke="rgba(26, 95, 122, 1)" stroke-width="1.5"></path><path d="M1427.45 375.36L1427.45 375.36" stroke="rgba(26, 95, 122, 1)" stroke-width="1.5"></path><path d="M1427.45 375.36L1586.69 412.24" stroke="rgba(26, 95, 122, 1)" stroke-width="1.5"></path><path d="M1422.87 539.55L1422.87 539.55" stroke="rgba(26, 95, 122, 1)" stroke-width="1.5"></path><path d="M1422.87 539.55L1541.01 529.15" stroke="rgba(26, 95, 122, 1)" stroke-width="1.5"></path><path d="M1422.87 539.55L1411.15 665.38" stroke="rgba(26, 95, 122, 1)" stroke-width="1.5"></path><path d="M1411.15 665.38L1411.15 665.38" stroke="rgba(26, 95, 122, 1)" stroke-width="1.5"></path><path d="M1411.15 665.38L1575.33 698.84" stroke="rgba(26, 95, 122, 1)" stroke-width="1.5"></path><path d="M1424.6 843.87L1424.6 843.87" stroke="rgba(26, 95, 122, 1)" stroke-width="1.5"></path><path d="M1424.6 843.87L1556.5 818.14" stroke="rgba(26, 95, 122, 1)" stroke-width="1.5"></path><path d="M1553.28 59.51L1553.28 59.51" stroke="rgba(26, 95, 122, 1)" stroke-width="1.5"></path><path d="M1553.28 59.51L1576.84 191.22" stroke="rgba(26, 95, 122, 1)" stroke-width="1.5"></path><path d="M1576.84 191.22L1576.84 191.22" stroke="rgba(26, 95, 122, 1)" stroke-width="1.5"></path><path d="M1576.84 191.22L1406.76 192.91" stroke="rgba(26, 95, 122, 1)" stroke-width="1.5"></path><path d="M1586.69 412.24L1586.69 412.24" stroke="rgba(26, 95, 122, 1)" stroke-width="1.5"></path><path d="M1586.69 412.24L1541.01 529.15" stroke="rgba(26, 95, 122, 1)" stroke-width="1.5"></path><path d="M1586.69 412.24L1743.41 365.69" stroke="rgba(26, 95, 122, 1)" stroke-width="1.5"></path><path d="M1586.69 412.24L1709.31 536.09" stroke="rgba(26, 95, 122, 1)" stroke-width="1.5"></path><path d="M1586.69 412.24L1422.87 539.55" stroke="rgba(26, 95, 122, 1)" stroke-width="1.5"></path><path d="M1541.01 529.15L1541.01 529.15" stroke="rgba(26, 95, 122, 1)" stroke-width="1.5"></path><path d="M1541.01 529.15L1709.31 536.09" stroke="rgba(26, 95, 122, 1)" stroke-width="1.5"></path><path d="M1541.01 529.15L1575.33 698.84" stroke="rgba(26, 95, 122, 1)" stroke-width="1.5"></path><path d="M1575.33 698.84L1575.33 698.84" stroke="rgba(26, 95, 122, 1)" stroke-width="1.5"></path><path d="M1575.33 698.84L1556.5 818.14" stroke="rgba(26, 95, 122, 1)" stroke-width="1.5"></path><path d="M1556.5 818.14L1556.5 818.14" stroke="rgba(26, 95, 122, 1)" stroke-width="1.5"></path><path d="M1737.84 -41.62L1737.84 -41.62" stroke="rgba(26, 95, 122, 1)" stroke-width="1.5"></path><path d="M1737.84 -41.62L1746.04 108.51" stroke="rgba(26, 95, 122, 1)" stroke-width="1.5"></path><path d="M1737.84 -41.62L1553.28 59.51" stroke="rgba(26, 95, 122, 1)" stroke-width="1.5"></path><path d="M1737.84 -41.62L1749.9 235.4" stroke="rgba(26, 95, 122, 1)" stroke-width="1.5"></path><path d="M1737.84 -41.62L1576.84 191.22" stroke="rgba(26, 95, 122, 1)" stroke-width="1.5"></path><path d="M1746.04 108.51L1746.04 108.51" stroke="rgba(26, 95, 122, 1)" stroke-width="1.5"></path><path d="M1746.04 108.51L1749.9 235.4" stroke="rgba(26, 95, 122, 1)" stroke-width="1.5"></path><path d="M1746.04 108.51L1576.84 191.22" stroke="rgba(26, 95, 122, 1)" stroke-width="1.5"></path><path d="M1746.04 108.51L1553.28 59.51" stroke="rgba(26, 95, 122, 1)" stroke-width="1.5"></path><path d="M1746.04 108.51L1743.41 365.69" stroke="rgba(26, 95, 122, 1)" stroke-width="1.5"></path><path d="M1746.04 108.51L1411 99.4" stroke="rgba(26, 95, 122, 1)" stroke-width="1.5"></path><path d="M1749.9 235.4L1749.9 235.4" stroke="rgba(26, 95, 122, 1)" stroke-width="1.5"></path><path d="M1749.9 235.4L1743.41 365.69" stroke="rgba(26, 95, 122, 1)" stroke-width="1.5"></path><path d="M1749.9 235.4L1576.84 191.22" stroke="rgba(26, 95, 122, 1)" stroke-width="1.5"></path><path d="M1749.9 235.4L1586.69 412.24" stroke="rgba(26, 95, 122, 1)" stroke-width="1.5"></path><path d="M1749.9 235.4L1553.28 59.51" stroke="rgba(26, 95, 122, 1)" stroke-width="1.5"></path><path d="M1743.41 365.69L1743.41 365.69" stroke="rgba(26, 95, 122, 1)" stroke-width="1.5"></path><path d="M1743.41 365.69L1709.31 536.09" stroke="rgba(26, 95, 122, 1)" stroke-width="1.5"></path><path d="M1709.31 536.09L1709.31 536.09" stroke="rgba(26, 95, 122, 1)" stroke-width="1.5"></path><path d="M1709.31 536.09L1743.63 687.05" stroke="rgba(26, 95, 122, 1)" stroke-width="1.5"></path><path d="M1743.63 687.05L1743.63 687.05" stroke="rgba(26, 95, 122, 1)" stroke-width="1.5"></path><path d="M1743.63 687.05L1738 840.51" stroke="rgba(26, 95, 122, 1)" stroke-width="1.5"></path><path d="M1743.63 687.05L1575.33 698.84" stroke="rgba(26, 95, 122, 1)" stroke-width="1.5"></path><path d="M1743.63 687.05L1556.5 818.14" stroke="rgba(26, 95, 122, 1)" stroke-width="1.5"></path><path d="M1743.63 687.05L1541.01 529.15" stroke="rgba(26, 95, 122, 1)" stroke-width="1.5"></path><path d="M1738 840.51L1738 840.51" stroke="rgba(26, 95, 122, 1)" stroke-width="1.5"></path><path d="M1738 840.51L1556.5 818.14" stroke="rgba(26, 95, 122, 1)" stroke-width="1.5"></path><path d="M1738 840.51L1575.33 698.84" stroke="rgba(26, 95, 122, 1)" stroke-width="1.5"></path><path d="M1738 840.51L1709.31 536.09" stroke="rgba(26, 95, 122, 1)" stroke-width="1.5"></path><path d="M1738 840.51L1424.6 843.87" stroke="rgba(26, 95, 122, 1)" stroke-width="1.5"></path><path d="M1738 840.51L1541.01 529.15" stroke="rgba(26, 95, 122, 1)" stroke-width="1.5"></path><circle r="5" cx="-41.92" cy="688.41" fill="rgba(26, 95, 122, 1)"></circle><circle r="5" cx="-107.71" cy="845.98" fill="rgba(26, 95, 122, 1)"></circle><circle r="5" cx="84.53" cy="520.68" fill="rgba(26, 95, 122, 1)"></circle><circle r="5" cx="66.16" cy="685.74" fill="rgba(26, 95, 122, 1)"></circle><circle r="5" cx="70.54" cy="791.46" fill="rgba(26, 95, 122, 1)"></circle><circle r="5" cx="222.47" cy="396.61" fill="rgba(26, 95, 122, 1)"></circle><circle r="5" cx="253.97" cy="498.17" fill="rgba(26, 95, 122, 1)"></circle><circle r="5" cx="219.06" cy="673.93" fill="rgba(26, 95, 122, 1)"></circle><circle r="5" cx="251.94" cy="843.88" fill="rgba(26, 95, 122, 1)"></circle><circle r="5" cx="371.59" cy="524.44" fill="rgba(26, 95, 122, 1)"></circle><circle r="5" cx="379.21" cy="663.72" fill="rgba(26, 95, 122, 1)"></circle><circle r="5" cx="383.92" cy="826.46" fill="rgba(26, 95, 122, 1)"></circle><circle r="5" cx="489.22" cy="382.66" fill="rgba(26, 95, 122, 1)"></circle><circle r="5" cx="546.18" cy="539.46" fill="rgba(26, 95, 122, 1)"></circle><circle r="5" cx="518.8" cy="687.35" fill="rgba(26, 95, 122, 1)"></circle><circle r="5" cx="542.52" cy="848.08" fill="rgba(26, 95, 122, 1)"></circle><circle r="5" cx="670.93" cy="390.2" fill="rgba(26, 95, 122, 1)"></circle><circle r="5" cx="681.56" cy="509.45" fill="rgba(26, 95, 122, 1)"></circle><circle r="5" cx="681.03" cy="662.14" fill="rgba(26, 95, 122, 1)"></circle><circle r="5" cx="661.11" cy="839.53" fill="rgba(26, 95, 122, 1)"></circle><circle r="5" cx="816.92" cy="208.19" fill="rgba(26, 95, 122, 1)"></circle><circle r="5" cx="796.85" cy="375.33" fill="rgba(26, 95, 122, 1)"></circle><circle r="5" cx="808.84" cy="522.71" fill="rgba(26, 95, 122, 1)"></circle><circle r="5" cx="839.79" cy="683.32" fill="rgba(26, 95, 122, 1)"></circle><circle r="5" cx="809.86" cy="815.28" fill="rgba(26, 95, 122, 1)"></circle><circle r="5" cx="943.43" cy="-74.73" fill="rgba(26, 95, 122, 1)"></circle><circle r="5" cx="995.91" cy="249.74" fill="rgba(26, 95, 122, 1)"></circle><circle r="5" cx="983.61" cy="410.53" fill="rgba(26, 95, 122, 1)"></circle><circle r="5" cx="949.1" cy="544.25" fill="rgba(26, 95, 122, 1)"></circle><circle r="5" cx="960.12" cy="682.33" fill="rgba(26, 95, 122, 1)"></circle><circle r="5" cx="975.36" cy="859.29" fill="rgba(26, 95, 122, 1)"></circle><circle r="5" cx="1159.75" cy="-77.47" fill="rgba(26, 95, 122, 1)"></circle><circle r="5" cx="1155.18" cy="67.48" fill="rgba(26, 95, 122, 1)"></circle><circle r="5" cx="1101.76" cy="189.86" fill="rgba(26, 95, 122, 1)"></circle><circle r="5" cx="1142.73" cy="344.85" fill="rgba(26, 95, 122, 1)"></circle><circle r="5" cx="1137.39" cy="555" fill="rgba(26, 95, 122, 1)"></circle><circle r="5" cx="1135.72" cy="700.66" fill="rgba(26, 95, 122, 1)"></circle><circle r="5" cx="1100.26" cy="856.64" fill="rgba(26, 95, 122, 1)"></circle><circle r="5" cx="1264.78" cy="-48.55" fill="rgba(26, 95, 122, 1)"></circle><circle r="5" cx="1294.55" cy="96.34" fill="rgba(26, 95, 122, 1)"></circle><circle r="5" cx="1248.19" cy="250.61" fill="rgba(26, 95, 122, 1)"></circle><circle r="5" cx="1251.56" cy="347.35" fill="rgba(26, 95, 122, 1)"></circle><circle r="5" cx="1247.69" cy="497.77" fill="rgba(26, 95, 122, 1)"></circle><circle r="5" cx="1267.61" cy="658.21" fill="rgba(26, 95, 122, 1)"></circle><circle r="5" cx="1252.41" cy="817.67" fill="rgba(26, 95, 122, 1)"></circle><circle r="5" cx="1407.81" cy="-47.6" fill="rgba(26, 95, 122, 1)"></circle><circle r="5" cx="1411" cy="99.4" fill="rgba(26, 95, 122, 1)"></circle><circle r="5" cx="1406.76" cy="192.91" fill="rgba(26, 95, 122, 1)"></circle><circle r="5" cx="1427.45" cy="375.36" fill="rgba(26, 95, 122, 1)"></circle><circle r="5" cx="1422.87" cy="539.55" fill="rgba(26, 95, 122, 1)"></circle><circle r="5" cx="1411.15" cy="665.38" fill="rgba(26, 95, 122, 1)"></circle><circle r="5" cx="1424.6" cy="843.87" fill="rgba(26, 95, 122, 1)"></circle><circle r="5" cx="1553.28" cy="59.51" fill="rgba(26, 95, 122, 1)"></circle><circle r="5" cx="1576.84" cy="191.22" fill="rgba(26, 95, 122, 1)"></circle><circle r="5" cx="1586.69" cy="412.24" fill="rgba(26, 95, 122, 1)"></circle><circle r="5" cx="1541.01" cy="529.15" fill="rgba(26, 95, 122, 1)"></circle><circle r="5" cx="1575.33" cy="698.84" fill="rgba(26, 95, 122, 1)"></circle><circle r="5" cx="1556.5" cy="818.14" fill="rgba(26, 95, 122, 1)"></circle><circle r="5" cx="1737.84" cy="-41.62" fill="rgba(26, 95, 122, 1)"></circle><circle r="5" cx="1746.04" cy="108.51" fill="rgba(26, 95, 122, 1)"></circle><circle r="5" cx="1749.9" cy="235.4" fill="rgba(26, 95, 122, 1)"></circle><circle r="5" cx="1743.41" cy="365.69" fill="rgba(26, 95, 122, 1)"></circle><circle r="5" cx="1709.31" cy="536.09" fill="rgba(26, 95, 122, 1)"></circle><circle r="5" cx="1743.63" cy="687.05" fill="rgba(26, 95, 122, 1)"></circle><circle r="5" cx="1738" cy="840.51" fill="rgba(26, 95, 122, 1)"></circle><path d="M55.43 805.87L55.43 805.87" stroke="hsl(228.5, 77.2%, 51.5%)" stroke-width="1.5"></path><path d="M55.43 805.87L-56.27 797.78" stroke="hsl(228.5, 77.2%, 51.5%)" stroke-width="1.5"></path><path d="M55.43 805.87L37.56 643.3" stroke="hsl(228.5, 77.2%, 51.5%)" stroke-width="1.5"></path><path d="M55.43 805.87L251.9 697.32" stroke="hsl(228.5, 77.2%, 51.5%)" stroke-width="1.5"></path><path d="M675.95 788.31L675.95 788.31" stroke="hsl(228.5, 77.2%, 51.5%)" stroke-width="1.5"></path><path d="M675.95 788.31L682.36 639.4" stroke="hsl(228.5, 77.2%, 51.5%)" stroke-width="1.5"></path><path d="M675.95 788.31L536.44 709.15" stroke="hsl(228.5, 77.2%, 51.5%)" stroke-width="1.5"></path><path d="M675.95 788.31L835.1 845.48" stroke="hsl(228.5, 77.2%, 51.5%)" stroke-width="1.5"></path><path d="M675.95 788.31L848.23 707.44" stroke="hsl(228.5, 77.2%, 51.5%)" stroke-width="1.5"></path><path d="M675.95 788.31L651.29 536.31" stroke="hsl(228.5, 77.2%, 51.5%)" stroke-width="1.5"></path><path d="M675.95 788.31L501.94 558.97" stroke="hsl(228.5, 77.2%, 51.5%)" stroke-width="1.5"></path><path d="M964.67 690.17L964.67 690.17" stroke="hsl(228.5, 77.2%, 51.5%)" stroke-width="1.5"></path><path d="M964.67 690.17L848.23 707.44" stroke="hsl(228.5, 77.2%, 51.5%)" stroke-width="1.5"></path><path d="M964.67 690.17L987.11 846.54" stroke="hsl(228.5, 77.2%, 51.5%)" stroke-width="1.5"></path><path d="M1139.58 531.25L1139.58 531.25" stroke="hsl(228.5, 77.2%, 51.5%)" stroke-width="1.5"></path><path d="M1139.58 531.25L1251.9 545.89" stroke="hsl(228.5, 77.2%, 51.5%)" stroke-width="1.5"></path><path d="M1139.58 531.25L1154.3 644.01" stroke="hsl(228.5, 77.2%, 51.5%)" stroke-width="1.5"></path><path d="M1312.04 105.91L1312.04 105.91" stroke="hsl(228.5, 77.2%, 51.5%)" stroke-width="1.5"></path><path d="M1312.04 105.91L1261.46 261.16" stroke="hsl(228.5, 77.2%, 51.5%)" stroke-width="1.5"></path><path d="M1312.04 105.91L1451.07 216.55" stroke="hsl(228.5, 77.2%, 51.5%)" stroke-width="1.5"></path><path d="M1251.9 545.89L1251.9 545.89" stroke="hsl(228.5, 77.2%, 51.5%)" stroke-width="1.5"></path><path d="M1251.9 545.89L1238.79 646.32" stroke="hsl(228.5, 77.2%, 51.5%)" stroke-width="1.5"></path><path d="M1251.9 545.89L1154.3 644.01" stroke="hsl(228.5, 77.2%, 51.5%)" stroke-width="1.5"></path><path d="M1451.07 216.55L1451.07 216.55" stroke="hsl(228.5, 77.2%, 51.5%)" stroke-width="1.5"></path><path d="M1451.07 216.55L1564.16 232.76" stroke="hsl(228.5, 77.2%, 51.5%)" stroke-width="1.5"></path><path d="M1451.07 216.55L1412.13 337.67" stroke="hsl(228.5, 77.2%, 51.5%)" stroke-width="1.5"></path><path d="M1412.13 337.67L1412.13 337.67" stroke="hsl(228.5, 77.2%, 51.5%)" stroke-width="1.5"></path><path d="M1457.44 490.48L1457.44 490.48" stroke="hsl(228.5, 77.2%, 51.5%)" stroke-width="1.5"></path><path d="M1457.44 490.48L1549.5 508.58" stroke="hsl(228.5, 77.2%, 51.5%)" stroke-width="1.5"></path><path d="M1457.44 490.48L1412.13 337.67" stroke="hsl(228.5, 77.2%, 51.5%)" stroke-width="1.5"></path><path d="M1457.44 490.48L1424.42 650.15" stroke="hsl(228.5, 77.2%, 51.5%)" stroke-width="1.5"></path><path d="M1457.44 490.48L1568.65 349.3" stroke="hsl(228.5, 77.2%, 51.5%)" stroke-width="1.5"></path><path d="M1457.44 490.48L1251.9 545.89" stroke="hsl(228.5, 77.2%, 51.5%)" stroke-width="1.5"></path><path d="M1549.5 508.58L1549.5 508.58" stroke="hsl(228.5, 77.2%, 51.5%)" stroke-width="1.5"></path><path d="M1549.5 508.58L1568.65 349.3" stroke="hsl(228.5, 77.2%, 51.5%)" stroke-width="1.5"></path><path d="M1549.5 508.58L1540.04 692.05" stroke="hsl(228.5, 77.2%, 51.5%)" stroke-width="1.5"></path><path d="M1549.5 508.58L1424.42 650.15" stroke="hsl(228.5, 77.2%, 51.5%)" stroke-width="1.5"></path><path d="M1549.5 508.58L1758.12 553.48" stroke="hsl(228.5, 77.2%, 51.5%)" stroke-width="1.5"></path><path d="M1549.5 508.58L1739.84 409.81" stroke="hsl(228.5, 77.2%, 51.5%)" stroke-width="1.5"></path><path d="M1724.08 45.47L1724.08 45.47" stroke="hsl(228.5, 77.2%, 51.5%)" stroke-width="1.5"></path><path d="M1724.08 45.47L1715.67 -61.02" stroke="hsl(228.5, 77.2%, 51.5%)" stroke-width="1.5"></path><path d="M1724.08 45.47L1704.91 192.24" stroke="hsl(228.5, 77.2%, 51.5%)" stroke-width="1.5"></path><path d="M1753.15 816.67L1753.15 816.67" stroke="hsl(228.5, 77.2%, 51.5%)" stroke-width="1.5"></path><path d="M1753.15 816.67L1746.22 638.88" stroke="hsl(228.5, 77.2%, 51.5%)" stroke-width="1.5"></path><path d="M1753.15 816.67L1572.03 831.17" stroke="hsl(228.5, 77.2%, 51.5%)" stroke-width="1.5"></path><path d="M-56.27 797.78L-56.27 797.78" stroke="hsl(228.5, 77.2%, 51.5%)" stroke-width="1.5"></path><path d="M-56.27 797.78L37.56 643.3" stroke="hsl(228.5, 77.2%, 51.5%)" stroke-width="1.5"></path><path d="M-56.27 797.78L251.9 697.32" stroke="hsl(228.5, 77.2%, 51.5%)" stroke-width="1.5"></path><path d="M37.56 643.3L37.56 643.3" stroke="hsl(228.5, 77.2%, 51.5%)" stroke-width="1.5"></path><path d="M37.56 643.3L251.9 697.32" stroke="hsl(228.5, 77.2%, 51.5%)" stroke-width="1.5"></path><path d="M251.9 697.32L251.9 697.32" stroke="hsl(228.5, 77.2%, 51.5%)" stroke-width="1.5"></path><path d="M251.9 697.32L357.2 659.7" stroke="hsl(228.5, 77.2%, 51.5%)" stroke-width="1.5"></path><path d="M251.9 697.32L346.24 828.87" stroke="hsl(228.5, 77.2%, 51.5%)" stroke-width="1.5"></path><path d="M357.2 659.7L357.2 659.7" stroke="hsl(228.5, 77.2%, 51.5%)" stroke-width="1.5"></path><path d="M357.2 659.7L346.24 828.87" stroke="hsl(228.5, 77.2%, 51.5%)" stroke-width="1.5"></path><path d="M357.2 659.7L501.94 558.97" stroke="hsl(228.5, 77.2%, 51.5%)" stroke-width="1.5"></path><path d="M357.2 659.7L536.44 709.15" stroke="hsl(228.5, 77.2%, 51.5%)" stroke-width="1.5"></path><path d="M346.24 828.87L346.24 828.87" stroke="hsl(228.5, 77.2%, 51.5%)" stroke-width="1.5"></path><path d="M501.94 558.97L501.94 558.97" stroke="hsl(228.5, 77.2%, 51.5%)" stroke-width="1.5"></path><path d="M501.94 558.97L651.29 536.31" stroke="hsl(228.5, 77.2%, 51.5%)" stroke-width="1.5"></path><path d="M501.94 558.97L536.44 709.15" stroke="hsl(228.5, 77.2%, 51.5%)" stroke-width="1.5"></path><path d="M501.94 558.97L682.36 639.4" stroke="hsl(228.5, 77.2%, 51.5%)" stroke-width="1.5"></path><path d="M501.94 558.97L251.9 697.32" stroke="hsl(228.5, 77.2%, 51.5%)" stroke-width="1.5"></path><path d="M536.44 709.15L536.44 709.15" stroke="hsl(228.5, 77.2%, 51.5%)" stroke-width="1.5"></path><path d="M536.44 709.15L682.36 639.4" stroke="hsl(228.5, 77.2%, 51.5%)" stroke-width="1.5"></path><path d="M536.44 709.15L651.29 536.31" stroke="hsl(228.5, 77.2%, 51.5%)" stroke-width="1.5"></path><path d="M651.29 536.31L651.29 536.31" stroke="hsl(228.5, 77.2%, 51.5%)" stroke-width="1.5"></path><path d="M651.29 536.31L682.36 639.4" stroke="hsl(228.5, 77.2%, 51.5%)" stroke-width="1.5"></path><path d="M651.29 536.31L861.83 510.13" stroke="hsl(228.5, 77.2%, 51.5%)" stroke-width="1.5"></path><path d="M651.29 536.31L848.23 707.44" stroke="hsl(228.5, 77.2%, 51.5%)" stroke-width="1.5"></path><path d="M682.36 639.4L682.36 639.4" stroke="hsl(228.5, 77.2%, 51.5%)" stroke-width="1.5"></path><path d="M682.36 639.4L848.23 707.44" stroke="hsl(228.5, 77.2%, 51.5%)" stroke-width="1.5"></path><path d="M861.83 510.13L861.83 510.13" stroke="hsl(228.5, 77.2%, 51.5%)" stroke-width="1.5"></path><path d="M861.83 510.13L977.42 530.34" stroke="hsl(228.5, 77.2%, 51.5%)" stroke-width="1.5"></path><path d="M861.83 510.13L978.93 380.37" stroke="hsl(228.5, 77.2%, 51.5%)" stroke-width="1.5"></path><path d="M848.23 707.44L848.23 707.44" stroke="hsl(228.5, 77.2%, 51.5%)" stroke-width="1.5"></path><path d="M848.23 707.44L835.1 845.48" stroke="hsl(228.5, 77.2%, 51.5%)" stroke-width="1.5"></path><path d="M848.23 707.44L987.11 846.54" stroke="hsl(228.5, 77.2%, 51.5%)" stroke-width="1.5"></path><path d="M835.1 845.48L835.1 845.48" stroke="hsl(228.5, 77.2%, 51.5%)" stroke-width="1.5"></path><path d="M835.1 845.48L987.11 846.54" stroke="hsl(228.5, 77.2%, 51.5%)" stroke-width="1.5"></path><path d="M835.1 845.48L964.67 690.17" stroke="hsl(228.5, 77.2%, 51.5%)" stroke-width="1.5"></path><path d="M978.93 380.37L978.93 380.37" stroke="hsl(228.5, 77.2%, 51.5%)" stroke-width="1.5"></path><path d="M978.93 380.37L1109.53 357.78" stroke="hsl(228.5, 77.2%, 51.5%)" stroke-width="1.5"></path><path d="M977.42 530.34L977.42 530.34" stroke="hsl(228.5, 77.2%, 51.5%)" stroke-width="1.5"></path><path d="M977.42 530.34L978.93 380.37" stroke="hsl(228.5, 77.2%, 51.5%)" stroke-width="1.5"></path><path d="M977.42 530.34L964.67 690.17" stroke="hsl(228.5, 77.2%, 51.5%)" stroke-width="1.5"></path><path d="M977.42 530.34L1139.58 531.25" stroke="hsl(228.5, 77.2%, 51.5%)" stroke-width="1.5"></path><path d="M977.42 530.34L1154.3 644.01" stroke="hsl(228.5, 77.2%, 51.5%)" stroke-width="1.5"></path><path d="M987.11 846.54L987.11 846.54" stroke="hsl(228.5, 77.2%, 51.5%)" stroke-width="1.5"></path><path d="M987.11 846.54L1126.71 822.67" stroke="hsl(228.5, 77.2%, 51.5%)" stroke-width="1.5"></path><path d="M1125.34 227.22L1125.34 227.22" stroke="hsl(228.5, 77.2%, 51.5%)" stroke-width="1.5"></path><path d="M1125.34 227.22L1109.53 357.78" stroke="hsl(228.5, 77.2%, 51.5%)" stroke-width="1.5"></path><path d="M1125.34 227.22L1261.46 261.16" stroke="hsl(228.5, 77.2%, 51.5%)" stroke-width="1.5"></path><path d="M1125.34 227.22L1260.43 384.76" stroke="hsl(228.5, 77.2%, 51.5%)" stroke-width="1.5"></path><path d="M1125.34 227.22L978.93 380.37" stroke="hsl(228.5, 77.2%, 51.5%)" stroke-width="1.5"></path><path d="M1109.53 357.78L1109.53 357.78" stroke="hsl(228.5, 77.2%, 51.5%)" stroke-width="1.5"></path><path d="M1109.53 357.78L1260.43 384.76" stroke="hsl(228.5, 77.2%, 51.5%)" stroke-width="1.5"></path><path d="M1109.53 357.78L1139.58 531.25" stroke="hsl(228.5, 77.2%, 51.5%)" stroke-width="1.5"></path><path d="M1154.3 644.01L1154.3 644.01" stroke="hsl(228.5, 77.2%, 51.5%)" stroke-width="1.5"></path><path d="M1154.3 644.01L1238.79 646.32" stroke="hsl(228.5, 77.2%, 51.5%)" stroke-width="1.5"></path><path d="M1126.71 822.67L1126.71 822.67" stroke="hsl(228.5, 77.2%, 51.5%)" stroke-width="1.5"></path><path d="M1126.71 822.67L1292.25 858.88" stroke="hsl(228.5, 77.2%, 51.5%)" stroke-width="1.5"></path><path d="M1126.71 822.67L1154.3 644.01" stroke="hsl(228.5, 77.2%, 51.5%)" stroke-width="1.5"></path><path d="M1126.71 822.67L1238.79 646.32" stroke="hsl(228.5, 77.2%, 51.5%)" stroke-width="1.5"></path><path d="M1126.71 822.67L964.67 690.17" stroke="hsl(228.5, 77.2%, 51.5%)" stroke-width="1.5"></path><path d="M1274.43 -94.48L1274.43 -94.48" stroke="hsl(228.5, 77.2%, 51.5%)" stroke-width="1.5"></path><path d="M1274.43 -94.48L1412.46 -82.86" stroke="hsl(228.5, 77.2%, 51.5%)" stroke-width="1.5"></path><path d="M1274.43 -94.48L1312.04 105.91" stroke="hsl(228.5, 77.2%, 51.5%)" stroke-width="1.5"></path><path d="M1274.43 -94.48L1557.61 40.93" stroke="hsl(228.5, 77.2%, 51.5%)" stroke-width="1.5"></path><path d="M1274.43 -94.48L1611.36 -85.55" stroke="hsl(228.5, 77.2%, 51.5%)" stroke-width="1.5"></path><path d="M1274.43 -94.48L1125.34 227.22" stroke="hsl(228.5, 77.2%, 51.5%)" stroke-width="1.5"></path><path d="M1261.46 261.16L1261.46 261.16" stroke="hsl(228.5, 77.2%, 51.5%)" stroke-width="1.5"></path><path d="M1261.46 261.16L1260.43 384.76" stroke="hsl(228.5, 77.2%, 51.5%)" stroke-width="1.5"></path><path d="M1261.46 261.16L1412.13 337.67" stroke="hsl(228.5, 77.2%, 51.5%)" stroke-width="1.5"></path><path d="M1261.46 261.16L1109.53 357.78" stroke="hsl(228.5, 77.2%, 51.5%)" stroke-width="1.5"></path><path d="M1260.43 384.76L1260.43 384.76" stroke="hsl(228.5, 77.2%, 51.5%)" stroke-width="1.5"></path><path d="M1260.43 384.76L1412.13 337.67" stroke="hsl(228.5, 77.2%, 51.5%)" stroke-width="1.5"></path><path d="M1260.43 384.76L1251.9 545.89" stroke="hsl(228.5, 77.2%, 51.5%)" stroke-width="1.5"></path><path d="M1260.43 384.76L1139.58 531.25" stroke="hsl(228.5, 77.2%, 51.5%)" stroke-width="1.5"></path><path d="M1238.79 646.32L1238.79 646.32" stroke="hsl(228.5, 77.2%, 51.5%)" stroke-width="1.5"></path><path d="M1238.79 646.32L1139.58 531.25" stroke="hsl(228.5, 77.2%, 51.5%)" stroke-width="1.5"></path><path d="M1238.79 646.32L1424.42 650.15" stroke="hsl(228.5, 77.2%, 51.5%)" stroke-width="1.5"></path><path d="M1292.25 858.88L1292.25 858.88" stroke="hsl(228.5, 77.2%, 51.5%)" stroke-width="1.5"></path><path d="M1292.25 858.88L1447.49 833.71" stroke="hsl(228.5, 77.2%, 51.5%)" stroke-width="1.5"></path><path d="M1412.46 -82.86L1412.46 -82.86" stroke="hsl(228.5, 77.2%, 51.5%)" stroke-width="1.5"></path><path d="M1412.46 -82.86L1557.61 40.93" stroke="hsl(228.5, 77.2%, 51.5%)" stroke-width="1.5"></path><path d="M1412.46 -82.86L1611.36 -85.55" stroke="hsl(228.5, 77.2%, 51.5%)" stroke-width="1.5"></path><path d="M1412.46 -82.86L1312.04 105.91" stroke="hsl(228.5, 77.2%, 51.5%)" stroke-width="1.5"></path><path d="M1412.46 -82.86L1451.07 216.55" stroke="hsl(228.5, 77.2%, 51.5%)" stroke-width="1.5"></path><path d="M1412.46 -82.86L1715.67 -61.02" stroke="hsl(228.5, 77.2%, 51.5%)" stroke-width="1.5"></path><path d="M1424.42 650.15L1424.42 650.15" stroke="hsl(228.5, 77.2%, 51.5%)" stroke-width="1.5"></path><path d="M1424.42 650.15L1540.04 692.05" stroke="hsl(228.5, 77.2%, 51.5%)" stroke-width="1.5"></path><path d="M1424.42 650.15L1447.49 833.71" stroke="hsl(228.5, 77.2%, 51.5%)" stroke-width="1.5"></path><path d="M1447.49 833.71L1447.49 833.71" stroke="hsl(228.5, 77.2%, 51.5%)" stroke-width="1.5"></path><path d="M1447.49 833.71L1572.03 831.17" stroke="hsl(228.5, 77.2%, 51.5%)" stroke-width="1.5"></path><path d="M1447.49 833.71L1540.04 692.05" stroke="hsl(228.5, 77.2%, 51.5%)" stroke-width="1.5"></path><path d="M1611.36 -85.55L1611.36 -85.55" stroke="hsl(228.5, 77.2%, 51.5%)" stroke-width="1.5"></path><path d="M1611.36 -85.55L1715.67 -61.02" stroke="hsl(228.5, 77.2%, 51.5%)" stroke-width="1.5"></path><path d="M1611.36 -85.55L1557.61 40.93" stroke="hsl(228.5, 77.2%, 51.5%)" stroke-width="1.5"></path><path d="M1611.36 -85.55L1724.08 45.47" stroke="hsl(228.5, 77.2%, 51.5%)" stroke-width="1.5"></path><path d="M1611.36 -85.55L1704.91 192.24" stroke="hsl(228.5, 77.2%, 51.5%)" stroke-width="1.5"></path><path d="M1611.36 -85.55L1564.16 232.76" stroke="hsl(228.5, 77.2%, 51.5%)" stroke-width="1.5"></path><path d="M1557.61 40.93L1557.61 40.93" stroke="hsl(228.5, 77.2%, 51.5%)" stroke-width="1.5"></path><path d="M1557.61 40.93L1724.08 45.47" stroke="hsl(228.5, 77.2%, 51.5%)" stroke-width="1.5"></path><path d="M1557.61 40.93L1715.67 -61.02" stroke="hsl(228.5, 77.2%, 51.5%)" stroke-width="1.5"></path><path d="M1557.61 40.93L1564.16 232.76" stroke="hsl(228.5, 77.2%, 51.5%)" stroke-width="1.5"></path><path d="M1557.61 40.93L1451.07 216.55" stroke="hsl(228.5, 77.2%, 51.5%)" stroke-width="1.5"></path><path d="M1564.16 232.76L1564.16 232.76" stroke="hsl(228.5, 77.2%, 51.5%)" stroke-width="1.5"></path><path d="M1564.16 232.76L1568.65 349.3" stroke="hsl(228.5, 77.2%, 51.5%)" stroke-width="1.5"></path><path d="M1564.16 232.76L1704.91 192.24" stroke="hsl(228.5, 77.2%, 51.5%)" stroke-width="1.5"></path><path d="M1564.16 232.76L1412.13 337.67" stroke="hsl(228.5, 77.2%, 51.5%)" stroke-width="1.5"></path><path d="M1568.65 349.3L1568.65 349.3" stroke="hsl(228.5, 77.2%, 51.5%)" stroke-width="1.5"></path><path d="M1568.65 349.3L1412.13 337.67" stroke="hsl(228.5, 77.2%, 51.5%)" stroke-width="1.5"></path><path d="M1568.65 349.3L1451.07 216.55" stroke="hsl(228.5, 77.2%, 51.5%)" stroke-width="1.5"></path><path d="M1540.04 692.05L1540.04 692.05" stroke="hsl(228.5, 77.2%, 51.5%)" stroke-width="1.5"></path><path d="M1540.04 692.05L1572.03 831.17" stroke="hsl(228.5, 77.2%, 51.5%)" stroke-width="1.5"></path><path d="M1572.03 831.17L1572.03 831.17" stroke="hsl(228.5, 77.2%, 51.5%)" stroke-width="1.5"></path><path d="M1572.03 831.17L1424.42 650.15" stroke="hsl(228.5, 77.2%, 51.5%)" stroke-width="1.5"></path><path d="M1572.03 831.17L1746.22 638.88" stroke="hsl(228.5, 77.2%, 51.5%)" stroke-width="1.5"></path><path d="M1715.67 -61.02L1715.67 -61.02" stroke="hsl(228.5, 77.2%, 51.5%)" stroke-width="1.5"></path><path d="M1715.67 -61.02L1704.91 192.24" stroke="hsl(228.5, 77.2%, 51.5%)" stroke-width="1.5"></path><path d="M1704.91 192.24L1704.91 192.24" stroke="hsl(228.5, 77.2%, 51.5%)" stroke-width="1.5"></path><path d="M1704.91 192.24L1568.65 349.3" stroke="hsl(228.5, 77.2%, 51.5%)" stroke-width="1.5"></path><path d="M1704.91 192.24L1557.61 40.93" stroke="hsl(228.5, 77.2%, 51.5%)" stroke-width="1.5"></path><path d="M1739.84 409.81L1739.84 409.81" stroke="hsl(228.5, 77.2%, 51.5%)" stroke-width="1.5"></path><path d="M1739.84 409.81L1758.12 553.48" stroke="hsl(228.5, 77.2%, 51.5%)" stroke-width="1.5"></path><path d="M1739.84 409.81L1568.65 349.3" stroke="hsl(228.5, 77.2%, 51.5%)" stroke-width="1.5"></path><path d="M1739.84 409.81L1704.91 192.24" stroke="hsl(228.5, 77.2%, 51.5%)" stroke-width="1.5"></path><path d="M1739.84 409.81L1746.22 638.88" stroke="hsl(228.5, 77.2%, 51.5%)" stroke-width="1.5"></path><path d="M1739.84 409.81L1564.16 232.76" stroke="hsl(228.5, 77.2%, 51.5%)" stroke-width="1.5"></path><path d="M1758.12 553.48L1758.12 553.48" stroke="hsl(228.5, 77.2%, 51.5%)" stroke-width="1.5"></path><path d="M1758.12 553.48L1746.22 638.88" stroke="hsl(228.5, 77.2%, 51.5%)" stroke-width="1.5"></path><path d="M1758.12 553.48L1540.04 692.05" stroke="hsl(228.5, 77.2%, 51.5%)" stroke-width="1.5"></path><path d="M1746.22 638.88L1746.22 638.88" stroke="hsl(228.5, 77.2%, 51.5%)" stroke-width="1.5"></path><path d="M1746.22 638.88L1540.04 692.05" stroke="hsl(228.5, 77.2%, 51.5%)" stroke-width="1.5"></path><circle r="25" cx="55.43" cy="805.87" fill="url(&quot;#SvgjsRadialGradient2016&quot;)"></circle><circle r="25" cx="675.95" cy="788.31" fill="url(&quot;#SvgjsRadialGradient2016&quot;)"></circle><circle r="25" cx="964.67" cy="690.17" fill="url(&quot;#SvgjsRadialGradient2016&quot;)"></circle><circle r="25" cx="1139.58" cy="531.25" fill="url(&quot;#SvgjsRadialGradient2016&quot;)"></circle><circle r="25" cx="1312.04" cy="105.91" fill="url(&quot;#SvgjsRadialGradient2016&quot;)"></circle><circle r="25" cx="1251.9" cy="545.89" fill="url(&quot;#SvgjsRadialGradient2016&quot;)"></circle><circle r="25" cx="1451.07" cy="216.55" fill="url(&quot;#SvgjsRadialGradient2016&quot;)"></circle><circle r="25" cx="1412.13" cy="337.67" fill="url(&quot;#SvgjsRadialGradient2016&quot;)"></circle><circle r="25" cx="1457.44" cy="490.48" fill="url(&quot;#SvgjsRadialGradient2016&quot;)"></circle><circle r="25" cx="1549.5" cy="508.58" fill="url(&quot;#SvgjsRadialGradient2016&quot;)"></circle><circle r="25" cx="1724.08" cy="45.47" fill="url(&quot;#SvgjsRadialGradient2016&quot;)"></circle><circle r="25" cx="1753.15" cy="816.67" fill="url(&quot;#SvgjsRadialGradient2016&quot;)"></circle><circle r="5" cx="-56.27" cy="797.78" fill="#8b9ad9"></circle><circle r="5" cx="37.56" cy="643.3" fill="#8b9ad9"></circle><circle r="5" cx="251.9" cy="697.32" fill="#8b9ad9"></circle><circle r="5" cx="357.2" cy="659.7" fill="#8b9ad9"></circle><circle r="5" cx="346.24" cy="828.87" fill="#8b9ad9"></circle><circle r="5" cx="501.94" cy="558.97" fill="#8b9ad9"></circle><circle r="5" cx="536.44" cy="709.15" fill="#8b9ad9"></circle><circle r="5" cx="651.29" cy="536.31" fill="#8b9ad9"></circle><circle r="5" cx="682.36" cy="639.4" fill="#8b9ad9"></circle><circle r="5" cx="861.83" cy="510.13" fill="#8b9ad9"></circle><circle r="5" cx="848.23" cy="707.44" fill="#8b9ad9"></circle><circle r="5" cx="835.1" cy="845.48" fill="#8b9ad9"></circle><circle r="5" cx="978.93" cy="380.37" fill="#8b9ad9"></circle><circle r="5" cx="977.42" cy="530.34" fill="#8b9ad9"></circle><circle r="5" cx="987.11" cy="846.54" fill="#8b9ad9"></circle><circle r="5" cx="1125.34" cy="227.22" fill="#8b9ad9"></circle><circle r="5" cx="1109.53" cy="357.78" fill="#8b9ad9"></circle><circle r="5" cx="1154.3" cy="644.01" fill="#8b9ad9"></circle><circle r="5" cx="1126.71" cy="822.67" fill="#8b9ad9"></circle><circle r="5" cx="1274.43" cy="-94.48" fill="#8b9ad9"></circle><circle r="5" cx="1261.46" cy="261.16" fill="#8b9ad9"></circle><circle r="5" cx="1260.43" cy="384.76" fill="#8b9ad9"></circle><circle r="5" cx="1238.79" cy="646.32" fill="#8b9ad9"></circle><circle r="5" cx="1292.25" cy="858.88" fill="#8b9ad9"></circle><circle r="5" cx="1412.46" cy="-82.86" fill="#8b9ad9"></circle><circle r="5" cx="1424.42" cy="650.15" fill="#8b9ad9"></circle><circle r="5" cx="1447.49" cy="833.71" fill="#8b9ad9"></circle><circle r="5" cx="1611.36" cy="-85.55" fill="#8b9ad9"></circle><circle r="5" cx="1557.61" cy="40.93" fill="#8b9ad9"></circle><circle r="5" cx="1564.16" cy="232.76" fill="#8b9ad9"></circle><circle r="5" cx="1568.65" cy="349.3" fill="#8b9ad9"></circle><circle r="5" cx="1540.04" cy="692.05" fill="#8b9ad9"></circle><circle r="5" cx="1572.03" cy="831.17" fill="#8b9ad9"></circle><circle r="5" cx="1715.67" cy="-61.02" fill="#8b9ad9"></circle><circle r="5" cx="1704.91" cy="192.24" fill="#8b9ad9"></circle><circle r="5" cx="1739.84" cy="409.81" fill="#8b9ad9"></circle><circle r="5" cx="1758.12" cy="553.48" fill="#8b9ad9"></circle><circle r="5" cx="1746.22" cy="638.88" fill="#8b9ad9"></circle></g><defs><mask id="SvgjsMask2015"><rect width="1517" height="664" fill="#ffffff"></rect></mask><radialGradient id="SvgjsRadialGradient2016"><stop stop-color="#ffffff" offset="0.1"></stop><stop stop-color="#1735b3" offset="0.2"></stop><stop stop-color="rgba(23, 53, 179, 0)" offset="1"></stop></radialGradient></defs></svg>