<svg xmlns="http://www.w3.org/2000/svg" version="1.1" xmlns:xlink="http://www.w3.org/1999/xlink" xmlns:svgjs="http://svgjs.dev/svgjs" width="1440" height="560" preserveAspectRatio="none" viewBox="0 0 1440 560"><g mask="url(&quot;#SvgjsMask1006&quot;)" fill="none"><path d="M83.55 72.72L148.51 110.22L148.51 185.22L83.55 222.72L18.6 185.22L18.6 110.22zM83.55 297.72L148.51 335.22L148.51 410.22L83.55 447.72L18.6 410.22L18.6 335.22zM83.55 522.72L148.51 560.22L148.51 635.22L83.55 672.72L18.6 635.22L18.6 560.22zM213.46 72.72L278.42 110.22L278.42 185.22L213.46 222.72L148.51 185.22L148.51 110.22zM148.51 410.22L213.46 447.72L213.46 522.72L148.51 560.22L83.55 522.72L83.55 447.72zM343.37 72.72L408.32 110.22L408.32 185.22L343.37 222.72L278.42 185.22L278.42 110.22zM278.42 185.22L343.37 222.72L343.37 297.72L278.42 335.22L213.46 297.72L213.46 222.72zM278.42 410.22L343.37 447.72L343.37 522.72L278.42 560.22L213.46 522.72L213.46 447.72zM343.37 522.72L408.32 560.22L408.32 635.22L343.37 672.72L278.42 635.22L278.42 560.22zM473.28 72.72L538.23 110.22L538.23 185.22L473.28 222.72L408.32 185.22L408.32 110.22zM408.32 185.22L473.28 222.72L473.28 297.72L408.32 335.22L343.37 297.72L343.37 222.72zM603.18 522.72L668.14 560.22L668.14 635.22L603.18 672.72L538.23 635.22L538.23 560.22zM733.09 72.72L798.05 110.22L798.05 185.22L733.09 222.72L668.14 185.22L668.14 110.22zM733.09 522.72L798.05 560.22L798.05 635.22L733.09 672.72L668.14 635.22L668.14 560.22zM798.04 -39.78L863 -2.28L863 72.72L798.04 110.22L733.09 72.72L733.09 -2.28zM863 297.72L927.95 335.22L927.95 410.22L863 447.72L798.04 410.22L798.04 335.22zM927.95 -39.78L992.91 -2.28L992.91 72.72L927.95 110.22L863 72.72L863 -2.28zM927.95 410.22L992.91 447.72L992.91 522.72L927.95 560.22L863 522.72L863 447.72zM1057.86 185.22L1122.81 222.72L1122.81 297.72L1057.86 335.22L992.91 297.72L992.91 222.72zM1122.81 522.72L1187.77 560.22L1187.77 635.22L1122.81 672.72L1057.86 635.22L1057.86 560.22zM1252.72 522.72L1317.67 560.22L1317.67 635.22L1252.72 672.72L1187.77 635.22L1187.77 560.22zM1317.67 185.22L1382.63 222.72L1382.63 297.72L1317.67 335.22L1252.72 297.72L1252.72 222.72zM1382.63 297.72L1447.58 335.22L1447.58 410.22L1382.63 447.72L1317.67 410.22L1317.67 335.22zM1382.63 522.72L1447.58 560.22L1447.58 635.22L1382.63 672.72L1317.67 635.22L1317.67 560.22zM1447.58 185.22L1512.54 222.72L1512.54 297.72L1447.58 335.22L1382.63 297.72L1382.63 222.72zM1512.54 297.72L1577.49 335.22L1577.49 410.22L1512.54 447.72L1447.58 410.22L1447.58 335.22zM1512.54 522.72L1577.49 560.22L1577.49 635.22L1512.54 672.72L1447.58 635.22L1447.58 560.22z" stroke="#03305d" stroke-width="2"></path><path d="M76.05 72.72 a7.5 7.5 0 1 0 15 0 a7.5 7.5 0 1 0 -15 0zM141.01 110.22 a7.5 7.5 0 1 0 15 0 a7.5 7.5 0 1 0 -15 0zM141.01 185.22 a7.5 7.5 0 1 0 15 0 a7.5 7.5 0 1 0 -15 0zM76.05 222.72 a7.5 7.5 0 1 0 15 0 a7.5 7.5 0 1 0 -15 0zM11.1 185.22 a7.5 7.5 0 1 0 15 0 a7.5 7.5 0 1 0 -15 0zM11.1 110.22 a7.5 7.5 0 1 0 15 0 a7.5 7.5 0 1 0 -15 0zM76.05 297.72 a7.5 7.5 0 1 0 15 0 a7.5 7.5 0 1 0 -15 0zM141.01 335.22 a7.5 7.5 0 1 0 15 0 a7.5 7.5 0 1 0 -15 0zM141.01 410.22 a7.5 7.5 0 1 0 15 0 a7.5 7.5 0 1 0 -15 0zM76.05 447.72 a7.5 7.5 0 1 0 15 0 a7.5 7.5 0 1 0 -15 0zM11.1 410.22 a7.5 7.5 0 1 0 15 0 a7.5 7.5 0 1 0 -15 0zM11.1 335.22 a7.5 7.5 0 1 0 15 0 a7.5 7.5 0 1 0 -15 0zM76.05 522.72 a7.5 7.5 0 1 0 15 0 a7.5 7.5 0 1 0 -15 0zM141.01 560.22 a7.5 7.5 0 1 0 15 0 a7.5 7.5 0 1 0 -15 0zM141.01 635.22 a7.5 7.5 0 1 0 15 0 a7.5 7.5 0 1 0 -15 0zM76.05 672.72 a7.5 7.5 0 1 0 15 0 a7.5 7.5 0 1 0 -15 0zM11.1 635.22 a7.5 7.5 0 1 0 15 0 a7.5 7.5 0 1 0 -15 0zM11.1 560.22 a7.5 7.5 0 1 0 15 0 a7.5 7.5 0 1 0 -15 0zM205.96 72.72 a7.5 7.5 0 1 0 15 0 a7.5 7.5 0 1 0 -15 0zM270.92 110.22 a7.5 7.5 0 1 0 15 0 a7.5 7.5 0 1 0 -15 0zM270.92 185.22 a7.5 7.5 0 1 0 15 0 a7.5 7.5 0 1 0 -15 0zM205.96 222.72 a7.5 7.5 0 1 0 15 0 a7.5 7.5 0 1 0 -15 0zM205.96 447.72 a7.5 7.5 0 1 0 15 0 a7.5 7.5 0 1 0 -15 0zM205.96 522.72 a7.5 7.5 0 1 0 15 0 a7.5 7.5 0 1 0 -15 0zM335.87 72.72 a7.5 7.5 0 1 0 15 0 a7.5 7.5 0 1 0 -15 0zM400.82 110.22 a7.5 7.5 0 1 0 15 0 a7.5 7.5 0 1 0 -15 0zM400.82 185.22 a7.5 7.5 0 1 0 15 0 a7.5 7.5 0 1 0 -15 0zM335.87 222.72 a7.5 7.5 0 1 0 15 0 a7.5 7.5 0 1 0 -15 0zM335.87 297.72 a7.5 7.5 0 1 0 15 0 a7.5 7.5 0 1 0 -15 0zM270.92 335.22 a7.5 7.5 0 1 0 15 0 a7.5 7.5 0 1 0 -15 0zM205.96 297.72 a7.5 7.5 0 1 0 15 0 a7.5 7.5 0 1 0 -15 0zM270.92 410.22 a7.5 7.5 0 1 0 15 0 a7.5 7.5 0 1 0 -15 0zM335.87 447.72 a7.5 7.5 0 1 0 15 0 a7.5 7.5 0 1 0 -15 0zM335.87 522.72 a7.5 7.5 0 1 0 15 0 a7.5 7.5 0 1 0 -15 0zM270.92 560.22 a7.5 7.5 0 1 0 15 0 a7.5 7.5 0 1 0 -15 0zM400.82 560.22 a7.5 7.5 0 1 0 15 0 a7.5 7.5 0 1 0 -15 0zM400.82 635.22 a7.5 7.5 0 1 0 15 0 a7.5 7.5 0 1 0 -15 0zM335.87 672.72 a7.5 7.5 0 1 0 15 0 a7.5 7.5 0 1 0 -15 0zM270.92 635.22 a7.5 7.5 0 1 0 15 0 a7.5 7.5 0 1 0 -15 0zM465.78 72.72 a7.5 7.5 0 1 0 15 0 a7.5 7.5 0 1 0 -15 0zM530.73 110.22 a7.5 7.5 0 1 0 15 0 a7.5 7.5 0 1 0 -15 0zM530.73 185.22 a7.5 7.5 0 1 0 15 0 a7.5 7.5 0 1 0 -15 0zM465.78 222.72 a7.5 7.5 0 1 0 15 0 a7.5 7.5 0 1 0 -15 0zM465.78 297.72 a7.5 7.5 0 1 0 15 0 a7.5 7.5 0 1 0 -15 0zM400.82 335.22 a7.5 7.5 0 1 0 15 0 a7.5 7.5 0 1 0 -15 0zM595.68 522.72 a7.5 7.5 0 1 0 15 0 a7.5 7.5 0 1 0 -15 0zM660.64 560.22 a7.5 7.5 0 1 0 15 0 a7.5 7.5 0 1 0 -15 0zM660.64 635.22 a7.5 7.5 0 1 0 15 0 a7.5 7.5 0 1 0 -15 0zM595.68 672.72 a7.5 7.5 0 1 0 15 0 a7.5 7.5 0 1 0 -15 0zM530.73 635.22 a7.5 7.5 0 1 0 15 0 a7.5 7.5 0 1 0 -15 0zM530.73 560.22 a7.5 7.5 0 1 0 15 0 a7.5 7.5 0 1 0 -15 0zM725.59 72.72 a7.5 7.5 0 1 0 15 0 a7.5 7.5 0 1 0 -15 0zM790.55 110.22 a7.5 7.5 0 1 0 15 0 a7.5 7.5 0 1 0 -15 0zM790.55 185.22 a7.5 7.5 0 1 0 15 0 a7.5 7.5 0 1 0 -15 0zM725.59 222.72 a7.5 7.5 0 1 0 15 0 a7.5 7.5 0 1 0 -15 0zM660.64 185.22 a7.5 7.5 0 1 0 15 0 a7.5 7.5 0 1 0 -15 0zM660.64 110.22 a7.5 7.5 0 1 0 15 0 a7.5 7.5 0 1 0 -15 0zM725.59 522.72 a7.5 7.5 0 1 0 15 0 a7.5 7.5 0 1 0 -15 0zM790.55 560.22 a7.5 7.5 0 1 0 15 0 a7.5 7.5 0 1 0 -15 0zM790.55 635.22 a7.5 7.5 0 1 0 15 0 a7.5 7.5 0 1 0 -15 0zM725.59 672.72 a7.5 7.5 0 1 0 15 0 a7.5 7.5 0 1 0 -15 0zM790.54 -39.78 a7.5 7.5 0 1 0 15 0 a7.5 7.5 0 1 0 -15 0zM855.5 -2.28 a7.5 7.5 0 1 0 15 0 a7.5 7.5 0 1 0 -15 0zM855.5 72.72 a7.5 7.5 0 1 0 15 0 a7.5 7.5 0 1 0 -15 0zM790.54 110.22 a7.5 7.5 0 1 0 15 0 a7.5 7.5 0 1 0 -15 0zM725.59 -2.28 a7.5 7.5 0 1 0 15 0 a7.5 7.5 0 1 0 -15 0zM855.5 297.72 a7.5 7.5 0 1 0 15 0 a7.5 7.5 0 1 0 -15 0zM920.45 335.22 a7.5 7.5 0 1 0 15 0 a7.5 7.5 0 1 0 -15 0zM920.45 410.22 a7.5 7.5 0 1 0 15 0 a7.5 7.5 0 1 0 -15 0zM855.5 447.72 a7.5 7.5 0 1 0 15 0 a7.5 7.5 0 1 0 -15 0zM790.54 410.22 a7.5 7.5 0 1 0 15 0 a7.5 7.5 0 1 0 -15 0zM790.54 335.22 a7.5 7.5 0 1 0 15 0 a7.5 7.5 0 1 0 -15 0zM920.45 -39.78 a7.5 7.5 0 1 0 15 0 a7.5 7.5 0 1 0 -15 0zM985.41 -2.28 a7.5 7.5 0 1 0 15 0 a7.5 7.5 0 1 0 -15 0zM985.41 72.72 a7.5 7.5 0 1 0 15 0 a7.5 7.5 0 1 0 -15 0zM920.45 110.22 a7.5 7.5 0 1 0 15 0 a7.5 7.5 0 1 0 -15 0zM985.41 447.72 a7.5 7.5 0 1 0 15 0 a7.5 7.5 0 1 0 -15 0zM985.41 522.72 a7.5 7.5 0 1 0 15 0 a7.5 7.5 0 1 0 -15 0zM920.45 560.22 a7.5 7.5 0 1 0 15 0 a7.5 7.5 0 1 0 -15 0zM855.5 522.72 a7.5 7.5 0 1 0 15 0 a7.5 7.5 0 1 0 -15 0zM1050.36 185.22 a7.5 7.5 0 1 0 15 0 a7.5 7.5 0 1 0 -15 0zM1115.31 222.72 a7.5 7.5 0 1 0 15 0 a7.5 7.5 0 1 0 -15 0zM1115.31 297.72 a7.5 7.5 0 1 0 15 0 a7.5 7.5 0 1 0 -15 0zM1050.36 335.22 a7.5 7.5 0 1 0 15 0 a7.5 7.5 0 1 0 -15 0zM985.41 297.72 a7.5 7.5 0 1 0 15 0 a7.5 7.5 0 1 0 -15 0zM985.41 222.72 a7.5 7.5 0 1 0 15 0 a7.5 7.5 0 1 0 -15 0zM1115.31 522.72 a7.5 7.5 0 1 0 15 0 a7.5 7.5 0 1 0 -15 0zM1180.27 560.22 a7.5 7.5 0 1 0 15 0 a7.5 7.5 0 1 0 -15 0zM1180.27 635.22 a7.5 7.5 0 1 0 15 0 a7.5 7.5 0 1 0 -15 0zM1115.31 672.72 a7.5 7.5 0 1 0 15 0 a7.5 7.5 0 1 0 -15 0zM1050.36 635.22 a7.5 7.5 0 1 0 15 0 a7.5 7.5 0 1 0 -15 0zM1050.36 560.22 a7.5 7.5 0 1 0 15 0 a7.5 7.5 0 1 0 -15 0zM1245.22 522.72 a7.5 7.5 0 1 0 15 0 a7.5 7.5 0 1 0 -15 0zM1310.17 560.22 a7.5 7.5 0 1 0 15 0 a7.5 7.5 0 1 0 -15 0zM1310.17 635.22 a7.5 7.5 0 1 0 15 0 a7.5 7.5 0 1 0 -15 0zM1245.22 672.72 a7.5 7.5 0 1 0 15 0 a7.5 7.5 0 1 0 -15 0zM1310.17 185.22 a7.5 7.5 0 1 0 15 0 a7.5 7.5 0 1 0 -15 0zM1375.13 222.72 a7.5 7.5 0 1 0 15 0 a7.5 7.5 0 1 0 -15 0zM1375.13 297.72 a7.5 7.5 0 1 0 15 0 a7.5 7.5 0 1 0 -15 0zM1310.17 335.22 a7.5 7.5 0 1 0 15 0 a7.5 7.5 0 1 0 -15 0zM1245.22 297.72 a7.5 7.5 0 1 0 15 0 a7.5 7.5 0 1 0 -15 0zM1245.22 222.72 a7.5 7.5 0 1 0 15 0 a7.5 7.5 0 1 0 -15 0zM1440.08 335.22 a7.5 7.5 0 1 0 15 0 a7.5 7.5 0 1 0 -15 0zM1440.08 410.22 a7.5 7.5 0 1 0 15 0 a7.5 7.5 0 1 0 -15 0zM1375.13 447.72 a7.5 7.5 0 1 0 15 0 a7.5 7.5 0 1 0 -15 0zM1310.17 410.22 a7.5 7.5 0 1 0 15 0 a7.5 7.5 0 1 0 -15 0zM1375.13 522.72 a7.5 7.5 0 1 0 15 0 a7.5 7.5 0 1 0 -15 0zM1440.08 560.22 a7.5 7.5 0 1 0 15 0 a7.5 7.5 0 1 0 -15 0zM1440.08 635.22 a7.5 7.5 0 1 0 15 0 a7.5 7.5 0 1 0 -15 0zM1375.13 672.72 a7.5 7.5 0 1 0 15 0 a7.5 7.5 0 1 0 -15 0zM1440.08 185.22 a7.5 7.5 0 1 0 15 0 a7.5 7.5 0 1 0 -15 0zM1505.04 222.72 a7.5 7.5 0 1 0 15 0 a7.5 7.5 0 1 0 -15 0zM1505.04 297.72 a7.5 7.5 0 1 0 15 0 a7.5 7.5 0 1 0 -15 0zM1569.99 335.22 a7.5 7.5 0 1 0 15 0 a7.5 7.5 0 1 0 -15 0zM1569.99 410.22 a7.5 7.5 0 1 0 15 0 a7.5 7.5 0 1 0 -15 0zM1505.04 447.72 a7.5 7.5 0 1 0 15 0 a7.5 7.5 0 1 0 -15 0zM1505.04 522.72 a7.5 7.5 0 1 0 15 0 a7.5 7.5 0 1 0 -15 0zM1569.99 560.22 a7.5 7.5 0 1 0 15 0 a7.5 7.5 0 1 0 -15 0zM1569.99 635.22 a7.5 7.5 0 1 0 15 0 a7.5 7.5 0 1 0 -15 0zM1505.04 672.72 a7.5 7.5 0 1 0 15 0 a7.5 7.5 0 1 0 -15 0z" fill="#03305d"></path><path d="M116 440.62L159.31 465.62L159.31 515.62L116 540.62L72.7 515.62L72.7 465.62zM159.31 515.62L202.61 540.62L202.61 590.62L159.31 615.62L116 590.62L116 540.62zM202.61 -9.38L245.91 15.62L245.91 65.62L202.61 90.62L159.31 65.62L159.31 15.62zM202.61 290.62L245.91 315.62L245.91 365.62L202.61 390.62L159.31 365.62L159.31 315.62zM289.21 -9.38L332.52 15.62L332.52 65.62L289.21 90.62L245.91 65.62L245.91 15.62zM332.52 515.62L375.82 540.62L375.82 590.62L332.52 615.62L289.21 590.62L289.21 540.62zM375.82 140.62L419.12 165.62L419.12 215.62L375.82 240.62L332.52 215.62L332.52 165.62zM938.75 215.62L982.06 240.62L982.06 290.62L938.75 315.62L895.45 290.62L895.45 240.62zM938.75 515.62L982.06 540.62L982.06 590.62L938.75 615.62L895.45 590.62L895.45 540.62zM1371.78 65.62L1415.08 90.62L1415.08 140.62L1371.78 165.62L1328.48 140.62L1328.48 90.62zM1371.78 515.62L1415.08 540.62L1415.08 590.62L1371.78 615.62L1328.48 590.62L1328.48 540.62z" stroke="rgba(6, 80, 156, 0.93)" stroke-width="2"></path></g><defs><mask id="SvgjsMask1006"><rect width="1440" height="560" fill="#ffffff"></rect></mask></defs></svg>